<?xml version="1.0" standalone="no"?>
<!DOCTYPE svg PUBLIC "-//W3C//DTD SVG 1.1//EN" "http://www.w3.org/Graphics/SVG/1.1/DTD/svg11.dtd" >
<svg xmlns="http://www.w3.org/2000/svg">
<metadata></metadata>
<defs>
<font id="metaplusboldroman" horiz-adv-x="561" >
<font-face units-per-em="2048" ascent="1638" descent="-410" />
<missing-glyph horiz-adv-x="460" />
<glyph horiz-adv-x="2048" />
<glyph horiz-adv-x="2048" />
<glyph unicode="&#xd;" horiz-adv-x="681" />
<glyph unicode=" "  horiz-adv-x="460" />
<glyph unicode="&#x09;" horiz-adv-x="460" />
<glyph unicode="&#xa0;" horiz-adv-x="460" />
<glyph unicode="!" horiz-adv-x="606" d="M127 143q0 70 49 120t121 50q70 0 119 -50t49 -119.5t-50 -120t-122 -50.5q-70 0 -118 49.5t-48 120.5zM129 1407l328 47l-58 -1001h-209z" />
<glyph unicode="&#x22;" horiz-adv-x="1064" d="M168 872v578h258v-578h-258zM643 872v578h258v-578h-258z" />
<glyph unicode="#" horiz-adv-x="1155" d="M61 412v184h197l35 258h-172v184h196l58 412h198l-57 -412h203l57 412h199l-57 -412h172v-184h-197l-35 -258h172v-184h-196l-58 -412h-198l57 412h-203l-57 -412h-199l57 412h-172zM457 596h202l35 258h-202z" />
<glyph unicode="$" horiz-adv-x="1171" d="M23 98l106 224q219 -115 391 -115q250 0 250 194q0 137 -186 185l-158 43q-207 57 -281 180q-59 96 -59 217q0 176 116.5 295t311.5 141v148h176v-150q221 -23 381 -137l-135 -205q-180 109 -332 109q-88 0 -143 -46t-55 -118q0 -55 34.5 -87t122.5 -56l172 -48 q174 -47 267.5 -156.5t93.5 -266.5q0 -197 -135.5 -325t-362.5 -151v-166h-176v166q-213 18 -399 125z" />
<glyph unicode="%" horiz-adv-x="1716" d="M55 1087q0 160 95 258.5t251 98.5q166 0 263 -103q90 -90 90 -249q0 -168 -97 -263q-98 -94 -255.5 -94t-252 95.5t-94.5 256.5zM279 1094q0 -115 22 -154q33 -51 102 -51q66 0 94.5 49t28.5 158q0 125 -41 164q-33 32 -86 32q-76 0 -102 -61q-18 -45 -18 -137zM385 0 l745 1423h195l-745 -1423h-195zM954 332q0 160 95 258t251 98q166 0 263 -102q90 -90 90 -250q0 -168 -97 -262q-98 -94 -255.5 -94t-252 95t-94.5 257zM1178 338q0 -115 22 -154q33 -51 103 -51q66 0 94 49t28 158q0 125 -41 164q-33 33 -86 33q-76 0 -102 -62 q-18 -45 -18 -137z" />
<glyph unicode="&#x26;" horiz-adv-x="1464" d="M100 358q0 236 256 355q-102 80 -133 145q-33 70 -33 162q0 152 115 248t295 96q182 0 299 -90t117 -234q0 -117 -70 -196q-57 -63 -180 -127l-18 -10l237 -226q16 61 19 201v14h229v-12q0 -231 -66 -381l306 -303h-381l-86 86q-53 -45 -123 -74q-104 -41 -269 -41 q-246 0 -380 101.5t-134 285.5zM393 375q0 -96 60.5 -149.5t169.5 -53.5q147 0 215 70l-334 321q-111 -68 -111 -188zM471 1040q0 -45 20.5 -78.5t86.5 -101.5l16 -16q135 70 135 192q0 59 -36 98.5t-91 39.5q-59 0 -95 -37t-36 -97z" />
<glyph unicode="'" horiz-adv-x="606" d="M174 872v578h258v-578h-258z" />
<glyph unicode="(" horiz-adv-x="716" d="M123 659q0 219 41 390q45 190 184 342q127 134 297 208l72 -161q-72 -51 -111 -90q-109 -109 -153 -248q-35 -100 -47 -269q-4 -119 -5 -167q0 -145 17 -316q23 -207 96 -336q39 -70 84 -112.5t123 -85.5l-72 -160q-150 51 -262.5 160.5t-175.5 263.5q-63 158 -82 422 q-6 90 -6 159z" />
<glyph unicode=")" horiz-adv-x="704" d="M-12 -182q61 45 110 90q109 109 156 248q33 100 45 268q6 92 6 172q0 172 -16 311q-25 213 -94 336q-41 70 -85 113t-122 86l71 160q152 -53 264.5 -162t174.5 -264q61 -160 80 -422q4 -57 4 -154q0 -242 -39 -395q-47 -188 -187 -340q-125 -137 -299 -209z" />
<glyph unicode="*" horiz-adv-x="987" d="M53 1069l66 195l268 -97v283h209v-283l268 88l62 -194l-269 -86l170 -234l-170 -125l-172 236l-166 -225l-165 125l172 223z" />
<glyph unicode="+" horiz-adv-x="1294" d="M74 492v258h432v432h258v-432h432v-258h-432v-433h-258v433h-432z" />
<glyph unicode="," horiz-adv-x="546" d="M68 -182q68 14 107.5 47t39.5 69q0 33 -53 66q-80 47 -80 143q0 74 52 125t126 51q90 0 147.5 -69.5t57.5 -175.5q0 -133 -80 -235.5t-209 -135.5z" />
<glyph unicode="-" horiz-adv-x="692" d="M102 442v238h492v-238h-492z" />
<glyph unicode="." horiz-adv-x="546" d="M94 150q0 74 52 126t126 52q76 0 129.5 -52.5t53.5 -125.5q0 -76 -53.5 -129.5t-127.5 -53.5q-76 0 -128 53.5t-52 129.5z" />
<glyph unicode="/" horiz-adv-x="983" d="M131 -315l549 1880h180l-549 -1880h-180z" />
<glyph unicode="0" horiz-adv-x="1122" d="M80 520q0 246 135 397.5t352 151.5q223 0 354.5 -148.5t131.5 -396.5q0 -246 -135.5 -397.5t-352.5 -151.5q-223 0 -354 148.5t-131 396.5zM381 526q0 -201 48 -275.5t136 -74.5q187 0 187 342q0 201 -48.5 275.5t-136.5 74.5q-186 0 -186 -342z" />
<glyph unicode="1" horiz-adv-x="851" d="M27 782l395 287h184v-846h164v-223h-649v223h221v531q-125 -78 -246 -119z" />
<glyph unicode="2" horiz-adv-x="1107" d="M68 879q227 203 516 202q182 0 290.5 -92t108.5 -244q0 -188 -192 -331q-33 -25 -82.5 -54.5t-110.5 -63.5t-88 -50q-4 -2 -12.5 -6t-21.5 -10.5t-19 -10.5q76 10 198 10h367l-59 -229h-854v250q10 6 74.5 35.5t135.5 70.5q203 115 279 193t76 153q0 66 -45 102t-119 36 q-119 0 -279 -131z" />
<glyph unicode="3" horiz-adv-x="1042" d="M-20 899q90 70 190 111q150 61 293 61q193 0 317.5 -101.5t124.5 -254.5q0 -182 -135 -264q-33 -20 -76 -37q115 -39 179.5 -121t64.5 -191q0 -211 -201.5 -345t-519.5 -134q-92 0 -170 10l-65 191q74 -14 155 -14q213 0 346 88t133 227q0 117 -90 156q-59 25 -190 24 q-76 0 -105 -2v229q66 -8 142 -8q227 0 227 162q0 70 -44 112t-130 42q-166 0 -303 -115z" />
<glyph unicode="4" horiz-adv-x="1122" d="M47 0v186l395 875h283l-295 -664q-2 -4 -22.5 -46t-39 -74.5t-30.5 -45.5q20 4 43 5h231l50 -3q-2 27 -3 37q0 78 15 219l22 240l215 49v-362q0 -84 -2 -121l-4 -62q41 2 66 3h86v-236h-92l-64 4q10 -27 10 -74v-288l-260 -33v346l4 51q-25 -6 -65 -6h-543z" />
<glyph unicode="5" horiz-adv-x="1011" d="M63 -160q109 -29 193 -28q164 0 267.5 84t103.5 215q0 98 -61.5 157.5t-162.5 59.5q-115 0 -299 -58l66 779h698l-41 -234h-401l-29 -285q53 10 97 11q190 0 310 -111t120 -287q0 -227 -181.5 -373.5t-463.5 -146.5q-80 0 -156 15z" />
<glyph unicode="6" horiz-adv-x="1148" d="M66 549q0 160 53 295q70 182 229 332q90 86 244.5 173t281.5 124l60 -197q-420 -135 -533 -473q82 68 220 67q186 0 312 -124.5t126 -307.5q0 -199 -138.5 -333t-340.5 -134q-225 0 -369.5 162t-144.5 416zM365 459q0 -131 53 -204t149 -73q92 0 147.5 68.5t55.5 183.5 q0 98 -50 156.5t-136 58.5q-96 1 -213 -67q-6 -37 -6 -123z" />
<glyph unicode="7" horiz-adv-x="940" d="M12 801l62 248h854l-45 -240q-309 -465 -430 -858q-20 -68 -60 -285l-301 -76q61 256 148 492q74 205 180 412q90 178 190 315q-31 -8 -82 -8h-516z" />
<glyph unicode="8" horiz-adv-x="1228" d="M70 352q0 115 67.5 211t173.5 135q-78 23 -141 113q-61 88 -61 197q0 170 136 274t355 104q207 0 339 -99t132 -257q0 -104 -72.5 -187t-191.5 -116q121 -35 227 -131q90 -84 90 -221q0 -139 -92 -247t-241 -144q-98 -25 -216 -25q-201 0 -323 76q-182 111 -182 317z M375 373q0 -96 62.5 -153.5t168.5 -57.5q92 0 150.5 49t58.5 127q0 96 -78 147q-81 54 -231 105q-131 -76 -131 -217zM391 1032q0 -94 125 -155q29 -14 84 -39q166 84 166 200q0 147 -186 148q-84 0 -136.5 -42t-52.5 -112z" />
<glyph unicode="9" horiz-adv-x="1155" d="M63 604q0 207 140.5 343t355.5 136q229 0 359.5 -148.5t130.5 -410.5q0 -414 -336 -692q-205 -172 -434 -252l-150 168q166 43 331 176t210 262q-84 -39 -166 -39q-188 0 -314.5 131.5t-126.5 325.5zM360 612q0 -111 56.5 -177t150.5 -66q90 -1 164 75q20 70 21 154 q0 129 -53.5 201.5t-145.5 72.5q-88 0 -140.5 -70.5t-52.5 -189.5z" />
<glyph unicode=":" horiz-adv-x="622" d="M133 139q0 76 52.5 130.5t126 52t124.5 -54.5t51 -128q0 -72 -52 -122t-126 -50q-72 0 -124 50.5t-52 121.5zM137 752q0 74 51 127t123 53q74 0 126 -52.5t52 -126t-52 -124.5t-126 -51q-72 0 -123 51t-51 123z" />
<glyph unicode=";" horiz-adv-x="638" d="M115 -182q66 16 105.5 48t39.5 68q0 33 -47 62q-86 51 -86 143q0 78 51 129t129 51q88 0 146.5 -69.5t58.5 -177.5q0 -131 -82 -234.5t-209 -134.5zM133 754q0 74 50 127t122 53q74 0 127 -52.5t53 -125.5q0 -72 -51 -124t-123 -52q-74 0 -126 51t-52 123z" />
<glyph unicode="&#x3c;" horiz-adv-x="2576" d="M90 608.5q0 71.5 50 121.5t122 50q70 0 121 -50t51 -121.5t-50 -123t-122 -51.5t-122 51.5t-50 123zM362 229.5q0 71.5 50.5 121.5t122 50t122 -51t50.5 -121q0 -72 -50.5 -123t-122 -51t-122 51.5t-50.5 123zM362 987q0 72 50.5 122t122 50t122 -51t50.5 -121 q0 -72 -50.5 -123t-122 -51t-122 51t-50.5 123zM598 608.5q0 71.5 51 121.5t121 50q72 0 123 -50t51 -121.5t-51 -123t-123 -51.5t-122 51.5t-50 123zM635 -149.5q0 71.5 51 122t121 50.5t121 -50.5t51 -122t-50 -123t-122 -51.5t-122 51.5t-50 123zM635 1366q0 72 51 122 t121 50t121 -50t51 -122t-50 -123t-122 -51t-122 51t-50 123zM1108 608.5q0 71.5 50 121.5t122 50t122 -50t50 -121.5t-50 -123t-122 -51.5t-122 51.5t-50 123zM1616 608.5q0 71.5 51 121.5t123 50q70 0 121 -50t51 -121.5t-50 -123t-122 -51.5t-123 51.5t-51 123z M2126 608.5q0 71.5 51 121.5t121 50q72 0 122 -50t50 -121.5t-50 -123t-122 -51.5t-122 51.5t-50 123z" />
<glyph unicode="=" horiz-adv-x="1363" d="M121 295v258h1122v-258h-1122zM121 688v258h1122v-258h-1122z" />
<glyph unicode="&#x3e;" horiz-adv-x="2576" d="M90 608.5q0 71.5 50 121.5t122 50q70 0 121 -50t51 -121.5t-50 -123t-122 -51.5t-122 51.5t-50 123zM598 608.5q0 71.5 51 121.5t121 50q72 0 123 -50t51 -121.5t-51 -123t-123 -51.5t-122 51.5t-50 123zM1108 608.5q0 71.5 50 121.5t122 50t122 -50t50 -121.5t-50 -123 t-122 -51.5t-122 51.5t-50 123zM1581 -149.5q0 71.5 51 122t121 50.5t121 -50.5t51 -122t-50 -123t-122 -51.5t-122 51.5t-50 123zM1581 1366q0 72 51 122t121 50t121 -50t51 -122t-50 -123t-122 -51t-122 51t-50 123zM1616 608.5q0 71.5 51 121.5t123 50q70 0 121 -50 t51 -121.5t-50 -123t-122 -51.5t-123 51.5t-51 123zM1853 229q0 70 50.5 121t122 51t122 -50t50.5 -121.5t-50.5 -123t-122 -51.5t-122 51t-50.5 123zM1853 987q0 70 50.5 121t122 51t122 -50t50.5 -122t-50.5 -123t-122 -51t-122 51t-50.5 123zM2126 608.5q0 71.5 51 121.5 t121 50q72 0 122 -50t50 -121.5t-50 -123t-122 -51.5t-122 51.5t-50 123z" />
<glyph unicode="?" horiz-adv-x="995" d="M80 1288q55 57 156.5 106.5t240.5 49.5q164 0 276.5 -93.5t112.5 -248.5q0 -66 -17.5 -119t-51 -91t-57 -57.5t-62.5 -43.5q-154 -98 -158 -267q0 -26 4 -71h-235l-10 53q-23 123 21 217t159 176q6 4 29.5 20.5t31.5 22.5t26.5 22.5t26 30t14.5 31.5t7 39q0 72 -47 106.5 t-121 34.5q-25 0 -46.5 -3t-42 -11t-34.5 -13t-32.5 -17.5t-24.5 -17.5t-25 -18l-16 -14zM266 143q0 70 49.5 120t120.5 50q70 0 119 -50t49 -119.5t-50 -120t-122 -50.5q-70 0 -118 49.5t-48 120.5z" />
<glyph unicode="@" horiz-adv-x="1638" d="M66 723q0 326 228 545t554 219q184 0 347 -76t270.5 -233.5t107.5 -364.5q0 -123 -36 -218t-88 -146.5t-118.5 -84t-117 -42t-95.5 -9.5q-80 0 -120 33t-42 78h-4q-106 -111 -262 -111q-131 0 -213 96.5t-82 247.5q0 188 113 324.5t297 136.5q164 0 221 -117h4l17 93h192 l-76 -404q-18 -88 -18 -135q0 -57 55 -57q72 0 124 77.5t52 227.5q0 240 -146.5 370t-387.5 130q-254 0 -411 -163t-157 -417q0 -264 169 -420t434 -156q229 0 387 125h225q-109 -150 -273.5 -229.5t-355.5 -79.5q-332 0 -563 216t-231 544zM616 680q0 -182 142 -182 q117 0 166 72.5t49 174.5q0 84 -39 136.5t-113 52.5q-92 0 -148.5 -73t-56.5 -181z" />
<glyph unicode="A" horiz-adv-x="1187" d="M-20 0l466 1427h310l448 -1427h-307l-100 338h-418l-100 -338h-299zM449 575h278q-47 150 -78 287l-57 252q-41 -168 -68 -274q-40 -159 -75 -265z" />
<glyph unicode="B" horiz-adv-x="1253" d="M172 0v1423h481q131 0 208 -22.5t143 -79.5q116 -101 116 -251t-96 -241q-51 -49 -131 -73q135 -39 209 -130t74 -229q0 -158 -97.5 -271.5t-275.5 -121.5q-90 -4 -182 -4h-449zM455 854h170q86 0 123 18q29 16 51 59.5t22 86.5q0 47 -22.5 88t-59.5 55q-45 18 -118 19 h-166v-326zM459 233h186q92 0 133 33q74 55 74 166q0 61 -28.5 110.5t-75.5 63.5q-41 12 -111 12h-178v-385z" />
<glyph unicode="C" horiz-adv-x="1122" d="M76 682q0 262 96 442q82 156 227.5 243t317.5 87q106 0 203.5 -31t156.5 -82l-129 -194q-109 80 -227 80q-72 0 -137.5 -33t-104.5 -90q-80 -119 -80 -367q0 -274 60 -381q87 -159 272 -159h2q129 0 244 92l131 -180q-162 -133 -395 -134q-293 0 -465 197 q-172 193 -172 510z" />
<glyph unicode="D" horiz-adv-x="1302" d="M172 0v1423h287q133 0 248 -8q186 -16 311 -141q194 -192 194 -563q0 -305 -143 -498q-139 -188 -346 -205q-106 -8 -205 -8h-346zM463 233h153q141 0 208 110t67 337q0 283 -72 399q-72 119 -225 119h-131v-965z" />
<glyph unicode="E" horiz-adv-x="1097" d="M172 0v1423h811l-37 -233h-487v-330h407v-233h-403v-381h538v-246h-829z" />
<glyph unicode="F" horiz-adv-x="978" d="M172 0v1423h772l-33 -231h-452v-326h362v-233h-362v-633h-287z" />
<glyph unicode="G" horiz-adv-x="1318" d="M78 698q0 449 297 648q150 100 346 100q265 0 453 -164l-152 -178q-134 110 -294 110h-3q-129 0 -205 -71q-121 -115 -121 -459q0 -299 107 -405q84 -80 223 -80q94 0 162 34v324h-217l-37 234h551v-680q-215 -127 -473 -127q-317 0 -486 217q-152 193 -151 497z" />
<glyph unicode="H" horiz-adv-x="1329" d="M172 0v1423h285v-553h409v553h291v-1423h-291v635h-409v-635h-285z" />
<glyph unicode="I" horiz-adv-x="643" d="M172 0v1423h299v-1423h-299z" />
<glyph unicode="J" horiz-adv-x="626" d="M-29 -188q125 76 166 172q29 66 29 262v1177h291v-1147q0 -197 -21 -278q-29 -119 -124 -205t-208 -129z" />
<glyph unicode="K" horiz-adv-x="1259" d="M172 0v1423h293v-649l405 649h353l-455 -659l506 -764h-377l-432 743v-743h-293z" />
<glyph unicode="L" horiz-adv-x="989" d="M172 0v1423h293v-1185h510l-51 -238h-752z" />
<glyph unicode="M" horiz-adv-x="1730" d="M129 0l133 1423h367l186 -712q33 -125 49 -226q18 106 51 232l193 706h365l126 -1423h-280l-53 760q-10 150 -11 237q-23 -109 -53 -219l-225 -778h-244l-203 748q-39 147 -57 251q0 -109 -10 -256l-49 -743h-285z" />
<glyph unicode="N" horiz-adv-x="1333" d="M172 0v1423h317l273 -569q104 -221 156 -403q-18 201 -23 391l-6 581h272v-1423h-299l-244 545q-158 352 -192 467q8 -104 14 -404l9 -608h-277z" />
<glyph unicode="O" horiz-adv-x="1368" d="M78 707q0 231 84 406t237 259q129 70 295 70q285 0 449 -193.5t164 -529.5q0 -242 -82 -417t-236 -259q-119 -66 -284 -66q-162 0 -271.5 47.5t-191.5 153.5q-164 211 -164 529zM397 707q0 -371 127 -461q68 -49 170 -49q150 0 216.5 120.5t66.5 393.5q0 211 -37 329 q-20 68 -84 124.5t-166 56.5q-72 0 -131 -34t-90 -91q-72 -135 -72 -389z" />
<glyph unicode="P" horiz-adv-x="1181" d="M172 0v1423h375q170 0 248.5 -16t146.5 -53q205 -113 205 -369q0 -141 -64.5 -249.5t-181.5 -164.5q-100 -47 -285 -47h-157v-524h-287zM459 758h149q88 0 125 14t66 59q35 55 35 148q0 100 -51.5 156.5t-141.5 56.5h-182v-434z" />
<glyph unicode="Q" horiz-adv-x="1363" d="M76 707q0 231 84 407t237 258q129 70 295 70q285 0 449 -193.5t164 -529.5q0 -227 -75 -397t-206 -256q31 -10 127 -72q98 -59 176 -60l127 11l-76 -187q-39 -24 -120 -24h-7q-109 0 -262 100q-150 100 -289 143q-160 0 -269 47.5t-191 153.5q-164 211 -164 529zM395 707 q0 -371 127 -461q68 -49 170 -49q150 0 216.5 120.5t66.5 393.5q0 211 -37 329q-20 68 -84 124.5t-166 56.5q-72 0 -131 -34t-90 -91q-72 -135 -72 -389z" />
<glyph unicode="R" horiz-adv-x="1243" d="M172 0v1423h530q188 0 303 -114.5t115 -302.5q0 -160 -93 -276t-224 -118q37 -29 59 -59q37 -45 122 -183.5t153 -254.5l67 -115h-338q-74 125 -133 233q-111 199 -154.5 265.5t-80.5 83.5q-23 10 -45 12v-594h-281zM453 809h96q162 0 215 47q55 51 55 143 q0 137 -102 175q-55 20 -162 20h-102v-385z" />
<glyph unicode="S" horiz-adv-x="1196" d="M37 98l106 224q219 -115 392 -115q249 0 249 192q0 135 -186 187l-158 43q-207 57 -280 180q-59 96 -60 217q0 195 142.5 317.5t367.5 122.5q276 0 475 -143l-135 -205q-180 109 -332 109q-88 0 -143 -46t-55 -118q0 -55 34.5 -87t123.5 -56l172 -48q174 -47 267 -156.5 t93 -266.5q0 -217 -161 -348.5t-427 -131.5q-260 0 -485 129z" />
<glyph unicode="T" horiz-adv-x="1060" d="M33 1186v237h1026l-47 -237h-340v-1186h-291v1186h-348z" />
<glyph unicode="U" horiz-adv-x="1351" d="M164 432v991h293v-936q0 -123 24 -170q51 -98 195 -98q94 0 150.5 44t66.5 122q4 31 4 127v911h291v-958q0 -156 -23 -223q-35 -104 -154.5 -186.5t-328.5 -82.5q-336 0 -457 191q-35 55 -48 110.5t-13 157.5z" />
<glyph unicode="V" horiz-adv-x="1208" d="M-18 1423h313l235 -741q47 -162 66 -248q25 117 82 285l242 704h301l-496 -1433h-260z" />
<glyph unicode="W" horiz-adv-x="1753" d="M23 1423h303l123 -561q25 -119 44 -235.5t25 -175.5l6 -58q27 240 74 455l127 575h313l131 -637l62 -376q16 170 78 473l116 540h301l-344 -1435h-313l-127 579q-45 199 -68 414q-25 -201 -67 -410l-119 -583h-326z" />
<glyph unicode="X" horiz-adv-x="1185" d="M-10 0l446 762l-385 661h350l193 -383l194 383h342l-370 -643l442 -780h-346l-256 502l-254 -502h-356z" />
<glyph unicode="Y" horiz-adv-x="1130" d="M-33 1423h344l183 -389q45 -94 71 -182q39 96 76 178l184 393h338l-454 -837v-586h-299v586z" />
<glyph unicode="Z" horiz-adv-x="1075" d="M70 0v201l524 866l88 129q-59 -10 -145 -10h-439l64 237h852v-206l-529 -891l-73 -101q84 8 141 8h479l-74 -233h-888z" />
<glyph unicode="[" horiz-adv-x="581" d="M35 -319v1818h430v-184h-184v-1450h184v-184h-430z" />
<glyph unicode="\" horiz-adv-x="833" d="M-18 1487l233 72l612 -1596l-231 -72z" />
<glyph unicode="]" horiz-adv-x="606" d="M115 -135h184v1450h-184v184h430v-1818h-430v184z" />
<glyph unicode="^" horiz-adv-x="1363" d="M166 702l369 748h299l368 -748h-291l-227 488l-229 -488h-289z" />
<glyph unicode="_" horiz-adv-x="1024" d="M0 -154h1024v-102h-1024v102z" />
<glyph unicode="`" horiz-adv-x="692" d="M61 1346l119 213l424 -267l-84 -151z" />
<glyph unicode="a" horiz-adv-x="1056" d="M76 289q0 360 504 360q39 0 61 -2v43q0 90 -24.5 123t-98.5 33q-127 0 -303 -119l-117 197q72 45 170 86q145 61 287 61q131 0 219 -47t119 -135q18 -55 18 -166v-23l-6 -352v-18q0 -86 19.5 -128t79.5 -87l-146 -168q-106 45 -147 127q-37 -37 -64 -56q-80 -57 -211 -57 q-174 0 -267 85t-93 243zM369 299q0 -61 33.5 -99t86.5 -38q78 0 144 71l4 226h-12q-145 0 -200.5 -34t-55.5 -126z" />
<glyph unicode="b" horiz-adv-x="1120" d="M121 0q26 59 26 212v11v971q0 182 -18 258l281 66q10 -90 10 -187v-248q0 -68 -6 -92q78 84 223 84q193 0 304.5 -143.5t111.5 -388.5q0 -328 -195 -482q-101 -81 -226 -81h-3q-145 0 -234 96q-10 -47 -28 -76h-246zM424 281q76 -68 154 -68q100 0 133 82q30 70 30 231 v11q0 125 -12 178q-31 133 -149 133q-80 0 -156 -84v-483z" />
<glyph unicode="c" horiz-adv-x="901" d="M74 516q0 338 215 485q115 78 260 78q115 0 203 -47q43 -23 102 -74l-133 -180q-88 82 -166 82q-92 0 -135 -84t-43 -268q0 -195 53 -264q47 -59 123 -60q90 0 188 86l17 15l125 -166q-49 -49 -97 -78q-113 -66 -256 -66q-217 0 -336.5 142.5t-119.5 398.5z" />
<glyph unicode="d" horiz-adv-x="1130" d="M72 506q0 246 125 399.5t323 153.5q113 0 187 -60q-8 45 -9 156v361l273 -43v-1090q0 -297 39 -383h-246q-10 20 -16 61q-100 -88 -242 -88q-199 0 -316.5 144.5t-117.5 388.5zM377 504q0 -168 41 -233.5t149 -65.5q80 0 135 67v500q-78 68 -149 68q-92 0 -134 -80 t-42 -256z" />
<glyph unicode="e" horiz-adv-x="1044" d="M72 514q0 270 131 416q127 141 329 141q197 0 304 -110q139 -141 139 -459v-64h-606v-8q0 -121 57 -187.5t164 -66.5q139 1 266 105l107 -164q-178 -145 -396 -146q-225 0 -360 147.5t-135 395.5zM373 639h317v12q0 106 -33 158q-39 61 -120 61q-78 0 -121 -59t-43 -168 v-4z" />
<glyph unicode="f" horiz-adv-x="634" d="M63 860v189h101q-10 72 -10 143q0 156 88 241t250 85q131 0 247 -66l-88 -170q-72 35 -112 35q-53 0 -84 -32t-31 -87v-149h266l-69 -189h-195v-860h-268v860h-95z" />
<glyph unicode="g" horiz-adv-x="1130" d="M59 -102q0 57 25 106h254q-12 -29 -12 -67q0 -129 196 -130q117 0 172 35q68 41 68 107q0 121 -193 125l-116 2q-180 2 -252 33q-80 31 -80 137q0 61 38 103t154 73q-225 57 -225 291q0 162 121 258t321 96q80 0 189 -27q86 -22 126 -22h3q117 0 217 90l115 -174 q-84 -78 -193 -78q-23 0 -72 6q61 -74 62 -172q0 -135 -109.5 -223t-277.5 -88q-20 0 -41 2q-109 -51 -109 -86q0 -25 45 -25l148 -2q217 -2 317 -94q90 -84 90 -223q0 -127 -84 -217q-127 -135 -413 -135q-276 0 -398 112q-86 80 -86 187zM365 711q0 -150 161 -150 q168 0 168 150q0 74 -44 114.5t-121.5 40.5t-120.5 -41t-43 -114z" />
<glyph unicode="h" horiz-adv-x="1142" d="M121 1452l280 66q18 -86 19 -256v-209q0 -18 -2 -51t-2 -37q53 51 135 81.5t162 30.5q100 0 174 -40t98 -109q27 -78 27 -195v-733h-269v705q0 78 -24.5 110.5t-81.5 32.5q-111 0 -217 -96v-752h-279v1212q0 168 -20 240z" />
<glyph unicode="i" d="M113 1337.5q0 69.5 50 119.5t122 50q70 0 118 -49t48 -120.5t-49.5 -121t-120.5 -49.5q-70 0 -119 50.5t-49 120zM143 0v1030l275 43v-1073h-275z" />
<glyph unicode="j" horiz-adv-x="571" d="M18 -299q61 51 101 119q33 59 33 200v986l272 65v-1042q0 -225 -78 -326q-74 -96 -213 -154zM121 1337q0 72 50 122t119.5 50t120 -49t50.5 -119q0 -72 -50.5 -122t-121.5 -50q-70 0 -119 49.5t-49 118.5z" />
<glyph unicode="k" horiz-adv-x="1052" d="M127 1454l276 68q16 -104 17 -340v-1182h-275v1182q0 149 -18 272zM426 594l268 455h330l-334 -439l412 -610h-324z" />
<glyph unicode="l" horiz-adv-x="620" d="M113 1452l280 64q14 -80 15 -273v-817q0 -201 18 -233q16 -29 55 -29q16 0 31 4l47 -164q-74 -29 -164 -29q-88 0 -153.5 39t-89.5 105q-25 63 -25 235v783q0 184 -14 315z" />
<glyph unicode="m" horiz-adv-x="1622" d="M106 999l248 68q23 -37 37 -106q111 106 256 106q131 0 213 -86q20 -20 41 -51q135 137 297 137q131 0 207 -66q45 -39 61.5 -93t16.5 -163v-745h-266v692q0 94 -16.5 122t-70.5 28q-84 0 -182 -88v-754h-260v682q0 98 -18.5 130t-75.5 32q-90 0 -180 -80v-764h-269v731 q0 198 -39 268z" />
<glyph unicode="n" horiz-adv-x="1110" d="M106 1006l244 69q39 -68 39 -131q78 53 121 78q86 45 188 45q88 0 158 -42t94 -110q20 -55 21 -149v-766h-271v682q0 90 -19 122t-73 32q-86 0 -190 -95v-741h-275v760q0 142 -37 246z" />
<glyph unicode="o" horiz-adv-x="1079" d="M66 520q0 248 129 398.5t342 150.5q223 0 356 -158q121 -141 121 -383q0 -256 -131 -405q-129 -145 -346 -146q-213 0 -342 147.5t-129 395.5zM371 526q0 -182 35 -264q18 -41 57 -63.5t82 -22.5q90 0 130 84t40 270q0 211 -56 281q-42 55 -118 55q-104 0 -142 -106 q-28 -83 -28 -224v-10z" />
<glyph unicode="p" horiz-adv-x="1114" d="M129 1026l244 43q16 -57 18 -98q35 43 106.5 70.5t151.5 27.5q113 0 207 -63q195 -131 195 -453q0 -168 -32 -268.5t-114 -188.5q-113 -119 -280 -119q-125 0 -219 56q4 -25 4 -86v-328l-265 -70v1213q0 164 -16 264zM412 256q74 -61 151 -61q102 0 145.5 75.5 t43.5 255.5q0 158 -27 232q-31 88 -131 88q-106 0 -182 -80v-510z" />
<glyph unicode="q" horiz-adv-x="1126" d="M63 508q0 264 107 401q49 61 102 97q107 69 223 69h3q82 0 155.5 -31.5t89.5 -74.5q3 43 21 82h227q-24 -102 -24 -294v-16v-1126l-260 -70v398q0 74 6 106q-82 -74 -209 -74q-223 0 -344 170q-53 76 -75 157t-22 206zM365 543q0 -227 57 -289q49 -53 127 -53 q90 0 158 80v493q-68 72 -158 72q-72 0 -119 -47q-65 -65 -65 -250v-6z" />
<glyph unicode="r" horiz-adv-x="720" d="M102 1008l246 65q37 -66 43 -149q70 96 156 133q37 16 90 16q49 0 102 -22l-75 -242q-39 20 -80 20q-92 0 -168 -88v-741h-275v700q0 206 -39 308z" />
<glyph unicode="s" horiz-adv-x="966" d="M29 88l98 201q195 -119 348 -119q59 0 99 34t40 85q0 53 -38.5 82.5t-122.5 46.5l-123 22q-51 8 -107.5 40t-85.5 67q-59 72 -59 188q0 154 111.5 248t293.5 94q174 0 375 -98l-90 -184q-148 75 -255 75h-3q-59 0 -96 -27.5t-37 -74.5q0 -41 29.5 -64.5t101.5 -41.5 l127 -33q145 -37 209 -119q57 -72 57 -178q0 -164 -124 -264.5t-324 -100.5q-193 0 -424 121z" />
<glyph unicode="t" horiz-adv-x="684" d="M23 860v189h104q0 170 10 247l279 70q-16 -154 -17 -317h246l-70 -189h-176v-526q0 -100 25 -134t94 -34q29 0 98 20l35 -163q-115 -47 -223 -48q-104 0 -181 42t-102 112q-18 51 -18 162v569h-104z" />
<glyph unicode="u" horiz-adv-x="1089" d="M121 352v672l270 51v-674q0 -127 23 -172q25 -49 96 -49q51 0 102.5 31t67.5 70v737l262 55v-801q0 -115 64 -190l-195 -111q-55 39 -82 103q-104 -100 -276 -101q-111 0 -197 47.5t-113 122.5q-22 63 -22 197v12z" />
<glyph unicode="v" horiz-adv-x="958" d="M-25 1032l281 35l152 -473q41 -127 67 -252q14 111 64 266l141 441h287l-383 -1049h-228z" />
<glyph unicode="w" horiz-adv-x="1458" d="M18 1030l273 31l86 -404l59 -325q27 186 76 364l98 353h258l84 -347l78 -370q29 207 57 342l80 375h283l-299 -1049h-252l-94 360q-43 160 -60 254q-8 43 -16 105q-8 -57 -24 -135q-20 -90 -91 -369l-53 -215h-256z" />
<glyph unicode="x" horiz-adv-x="1026" d="M-49 0l387 559l-291 440l285 80q92 -154 141 -256q16 -33 33 -69q23 61 92 204q27 55 49 91h324l-312 -484l377 -565h-348l-110 193q-10 18 -44 83.5t-38 71.5q-25 -72 -105 -203l-88 -145h-352z" />
<glyph unicode="y" horiz-adv-x="1017" d="M-12 1032l280 33l183 -612l55 -217q20 117 33 167q18 76 41 146l157 500h289l-381 -1065q-53 -150 -98 -226.5t-103 -119.5q-104 -76 -254 -97l-94 180q117 33 170 70q43 31 78 86q29 47 59 123h-69l-98 295z" />
<glyph unicode="z" horiz-adv-x="933" d="M49 0v170l494 686h-453v193h778v-189l-462 -670h481l-66 -190h-772z" />
<glyph unicode="{" horiz-adv-x="798" d="M53 473v234q27 0 57.5 5t71.5 17t66.5 43t25.5 76v354q0 152 72 224.5t193 72.5h215v-233h-101q-45 0 -73.5 -12.5t-40 -34t-15.5 -40t-4 -44.5v-330q0 -68 -18.5 -112t-54 -63.5t-62.5 -26.5t-70 -11v-4q43 -2 71 -9.5t62.5 -27t53 -63.5t18.5 -111v-332q0 -27 4 -45 t15.5 -39.5t40 -34t73.5 -12.5h101v-233h-215q-117 0 -191 73.5t-74 225.5v352q0 45 -25.5 75.5t-66.5 43t-71.5 17.5t-57.5 5z" />
<glyph unicode="|" horiz-adv-x="454" d="M98 -37v1585h258v-1585h-258z" />
<glyph unicode="}" horiz-adv-x="802" d="M59 -86h101q45 0 73.5 12.5t40 34t15.5 39.5t4 45v330q0 68 18.5 111.5t54 63t62.5 27t70 11.5v4q-43 2 -71 9t-62.5 26.5t-53 63.5t-18.5 112v332q0 27 -4 45t-15.5 39.5t-40 34t-73.5 12.5h-101v233h222q113 0 185.5 -73.5t72.5 -225.5v-352q0 -45 25.5 -76t65.5 -43 t70.5 -17t59.5 -5v-234q-29 0 -59.5 -5t-70.5 -17.5t-65.5 -43t-25.5 -75.5v-355q0 -152 -72 -224t-193 -72h-215v233z" />
<glyph unicode="~" horiz-adv-x="1363" d="M209 643q92 176 256 176q80 0 227 -65q14 -6 44 -19.5t47.5 -20.5t41 -16.5t42 -13.5t34.5 -4q39 0 76 25.5t52 45t52 68.5l74 -221q-92 -176 -256 -176q-80 0 -227 65q-14 6 -44 19.5t-47.5 21t-41 16.5t-42 13t-34.5 4q-39 0 -76 -25.5t-52.5 -45t-51.5 -68.5z" />
<glyph unicode="&#xa0;" horiz-adv-x="1007" d="M51 868v248h307v307h271v-307h332l-48 -248h-284v-868h-271v868h-307z" />
<glyph unicode="&#xa1;" horiz-adv-x="808" d="M49 1087q0 160 95 258.5t251 98.5q160 0 262 -103q90 -90 91 -249q0 -168 -97 -263q-98 -94 -255.5 -94t-252 95.5t-94.5 256.5zM272 1094q0 -119 23 -154q33 -51 102 -51q66 0 94.5 49t28.5 158q0 125 -41 164q-33 32 -86 32q-76 0 -102 -61q-18 -45 -19 -137z" />
<glyph unicode="&#xa2;" horiz-adv-x="925" d="M88 516q0 338 215 485q63 43 148 64v199h192v-197q53 0 123 -35q43 -23 102 -74l-133 -180q-88 82 -166 82q-92 0 -135 -84t-43 -268q0 -195 53 -264q47 -59 123 -60q90 0 189 86l16 15l125 -166q-49 -49 -96 -78q-72 -43 -158 -57v-211h-192v211q-172 29 -267.5 168 t-95.5 364z" />
<glyph unicode="&#xa3;" horiz-adv-x="1245" d="M117 0v233h196v406h-196v209h196v145q0 197 136.5 339.5t371.5 142.5q274 0 428 -140l-205 -219q-88 88 -186 88q-127 0 -182 -73.5t-55 -182.5v-100h319v-209h-319v-406h518v-233h-1022z" />
<glyph unicode="&#xa4;" horiz-adv-x="1257" d="M82 -51l262 129q16 -70 82 -105.5t141 -35.5q61 0 112.5 24.5t51.5 81.5q0 45 -46 81t-113.5 60.5t-148.5 61.5t-148.5 76.5t-113.5 112.5t-46 165q0 193 178 303q-129 86 -129 236q0 113 68.5 194.5t166 117.5t205.5 36q150 0 276 -52.5t183 -170.5l-258 -148 q-20 57 -72.5 91t-116.5 34q-53 0 -93 -28.5t-40 -79.5q0 -55 65.5 -98.5t160 -79t188.5 -78.5t159.5 -121t65.5 -181q0 -82 -48 -155.5t-124 -110.5q113 -90 113 -243q0 -127 -82 -215.5t-191.5 -124t-230.5 -35.5q-356 0 -477 258zM397 657q0 -35 12.5 -61.5t44 -48 t47 -29.5t60.5 -29l209 -96q70 41 70 125q0 86 -133 148l-238 112q-72 -41 -72 -121z" />
<glyph unicode="&#xa5;" horiz-adv-x="1024" d="M150 725q0 152 105 257t257 105t257 -105t105 -257t-105 -257.5t-257 -105.5t-257 105.5t-105 257.5z" />
<glyph unicode="&#xa6;" horiz-adv-x="1261" d="M129 1065q0 199 126 292t351 93h551v-1708h-184v1561h-219v-1561h-185v950q-197 0 -318.5 104.5t-121.5 268.5z" />
<glyph unicode="&#xa7;" horiz-adv-x="1269" d="M16 836v213h168v32q0 104 18.5 167t84.5 122q86 80 213 105q57 10 112 10q205 0 325 -91t120 -247q0 -166 -152 -256l-65 -39q-27 -16 -27 -37q0 -29 49 -51q96 -43 139 -69.5t84 -67.5q86 -94 86 -232q0 -188 -129 -305t-337 -117q-102 0 -154 25l61 188q27 -10 62 -10 q94 0 145 54.5t51 154.5q0 78 -43 123q-37 41 -75 65l-93 60q-90 57 -90 166q0 94 68 143l47 37q66 51 66 131t-37 123q-37 41 -103 41q-53 0 -92 -34t-49 -87q-6 -31 -6 -143v-799q0 -123 -41 -211h-279q41 131 41 260v576h-168z" />
<glyph unicode="&#xa8;" horiz-adv-x="1638" d="M57 725q0 315 223.5 538.5t539 223.5t538.5 -223.5t223 -538.5t-223 -538.5t-538.5 -223.5t-539 223.5t-223.5 538.5zM266 725q0 -238 162 -408t391.5 -170t391 170t161.5 408t-161.5 408t-391 170t-391.5 -170t-162 -408zM537 350v783h313q115 0 183.5 -66t68.5 -174 q0 -86 -51.5 -145.5t-128.5 -67.5q10 -4 18 -9t17.5 -13.5t15.5 -13.5t15 -18.5t12.5 -16.5t14.5 -18.5t11 -17.5l137 -223h-235q-14 23 -39 64t-43 69q-88 158 -111 176v-309h-198zM735 813h53q57 0 80 18.5t23 59.5q0 80 -100 80h-56v-158z" />
<glyph unicode="&#xa9;" horiz-adv-x="1638" d="M57 725q0 315 223.5 538.5t539 223.5t538.5 -223.5t223 -538.5t-223 -538.5t-538.5 -223.5t-539 223.5t-223.5 538.5zM266 725q0 -238 162 -408t391.5 -170t391 170t161.5 408t-161.5 408t-391 170t-391.5 -170t-162 -408zM459 709q0 186 102.5 305t272.5 119 q135 0 229 -78l-94 -135q-76 51 -133 51q-154 0 -154 -234q0 -139 38 -200.5t124 -61.5q76 0 137 57l100 -126q-117 -88 -250 -89q-170 0 -271 106.5t-101 285.5z" />
<glyph unicode="&#xaa;" horiz-adv-x="2113" d="M104 1253v197h709v-197h-244v-647h-221v647h-244zM993 606v844h297l201 -549l201 549h297v-844h-222v549h-4l-200 -549h-144l-200 549h-5v-549h-221z" />
<glyph unicode="&#xab;" horiz-adv-x="692" d="M80 1292l424 267l119 -213l-459 -205z" />
<glyph unicode="&#xac;" horiz-adv-x="1021" d="M143 1300.5q0 63.5 47 110.5t113 47q63 0 108.5 -46t45.5 -112q0 -63 -46 -110t-112 -47q-63 0 -109.5 47t-46.5 110.5zM575 1300.5q0 65.5 47.5 111.5t112.5 46q63 0 108.5 -46t45.5 -112q0 -63 -47 -110t-110.5 -47t-110 46t-46.5 111.5z" />
<glyph unicode="&#xad;" horiz-adv-x="1363" d="M109 295v258h426l75 135h-501v258h645l186 314l164 -101l-68 -112q-8 -16 -27.5 -41t-33.5 -43l-17 -17h273v-258h-426l-76 -135h502v-258h-645l-187 -313l-163 100l67 113q8 16 27.5 41.5t34.5 42.5l16 16h-272z" />
<glyph unicode="&#xae;" horiz-adv-x="1765" d="M-61 0l847 1423h865l-37 -233h-488v-330h408v-233h-404v-381h547v-246h-837v338h-391l-191 -338h-319zM582 575h258v330l10 168q-213 -404 -268 -498z" />
<glyph unicode="&#xaf;" horiz-adv-x="1404" d="M84 707q0 231 84 407t238 258q129 70 294 70q170 0 297 -72l125 203l150 -84l-139 -225q180 -193 180 -545q0 -242 -82 -417t-236 -259q-119 -66 -284 -66q-190 0 -318 70l-137 -227l-150 84l156 256q-178 217 -178 547zM403 707q0 -164 25 -275l440 725q-70 63 -172 64 q-72 0 -132 -34t-89 -91q-72 -135 -72 -389zM518 252q80 -55 182 -55q150 0 216.5 120.5t66.5 393.5q0 160 -22 268z" />
<glyph unicode="&#xb0;" horiz-adv-x="1890" d="M33 520q0 188 126 284.5t294 96.5q182 0 366 -127l135 -94l138 102q178 121 358 121q68 0 133.5 -17.5t128 -56t101 -114.5t38.5 -178q0 -182 -127 -280.5t-288 -98.5q-174 0 -353 116l-149 105l-135 -98q-180 -125 -361 -125q-53 0 -105 10t-107.5 35.5t-97.5 65.5 t-68.5 105.5t-26.5 147.5zM303 522q0 -57 41 -94t109 -37q94 0 209 84l65 47l-100 72q-78 61 -174 61q-78 0 -114 -38.5t-36 -94.5zM1157 535l103 -68q82 -66 174 -66q78 0 113.5 39.5t35.5 94.5q0 57 -41 94t-108 37q-109 0 -209 -80z" />
<glyph unicode="&#xb1;" horiz-adv-x="972" d="M49 580v231h307v281h252v-281h307v-231h-307v-293h-252v293h-307zM53 0v231h858v-231h-858z" />
<glyph unicode="&#xb2;" horiz-adv-x="942" d="M78 0v223h784v-223h-784zM78 528v197l784 365v-269l-422 -178l422 -143v-262z" />
<glyph unicode="&#xb3;" horiz-adv-x="942" d="M72 0v223h784v-223h-784zM72 238v266l422 139l-422 178v269l784 -365v-197z" />
<glyph unicode="&#xb4;" horiz-adv-x="1159" d="M-27 1423h344l183 -389q45 -94 71 -182q39 96 76 178l184 393h338l-313 -573h211v-211h-324l-28 -53v-103h352v-211h-352v-272h-299v272h-346v211h346v103l-29 53h-317v211h206z" />
<glyph unicode="&#xb5;" horiz-adv-x="1099" d="M137 -451v1475l271 51v-674q0 -127 22 -172q25 -49 96 -49q51 0 102.5 31t67.5 70v737l262 55v-801q0 -115 64 -190l-195 -111q-55 39 -82 103q-104 -100 -276 -101q-39 0 -72 29q4 -41 4 -63v-320z" />
<glyph unicode="&#xb6;" horiz-adv-x="1069" d="M-8 1217l164 194q154 -16 322.5 -100t283.5 -215q233 -274 233 -602q0 -248 -128 -383.5t-332 -135.5q-199 0 -326 125t-127 338q0 195 122 311.5t312 116.5q14 0 107 -6q-57 80 -136 148q-197 174 -495 209zM358 434q0 -106 50.5 -170.5t138.5 -64.5t132 75.5t44 202.5 q0 29 -12 133q-61 39 -183 39q-80 0 -125 -55t-45 -160z" />
<glyph unicode="&#xb7;" horiz-adv-x="1015" d="M68 2l2 184l491 516l-485 517l65 188h813l-80 -229h-425l452 -469l-471 -476h533l-74 -231h-821z" />
<glyph unicode="&#xb8;" horiz-adv-x="1419" d="M45 0v205h150v899h-150v233h1325v-233h-147v-899h147v-205h-559v205h141v899h-487v-899h141v-205h-561z" />
<glyph unicode="&#xb9;" horiz-adv-x="1163" d="M45 846v225h1069v-225h-133v-596q0 -49 23 -49q45 0 61 20l59 -186q-111 -55 -186 -55q-94 0 -156 57q-68 57 -67 184v625h-269v-555q0 -129 -10 -179.5t-43 -111.5h-274q39 86 50 146.5t11 160.5v539h-135z" />
<glyph unicode="&#xba;" horiz-adv-x="491" d="M-217 -330l108 226q92 -63 136 -64q84 0 94 131l86 1176q6 111 44 175t103 113q94 61 209 62q117 0 248 -72l-109 -223q-92 63 -135 63q-84 0 -94 -133l-86 -1175q-6 -111 -44 -173.5t-105 -113.5q-96 -63 -207 -63q-117 0 -248 71z" />
<glyph unicode="&#xbb;" horiz-adv-x="827" d="M45 473v160h748v-160h-748zM70 993q0 270 379 271h45v30q0 68 -18.5 92.5t-74.5 24.5q-98 0 -227 -88l-88 147q39 25 129 64q109 47 215 47q205 0 252 -137q16 -45 14 -141l-4 -265v-14q0 -63 14.5 -95t59.5 -65l-98 -127q-96 39 -121 97q-33 -31 -49 -43 q-59 -43 -158 -43q-129 0 -199.5 64.5t-70.5 180.5zM289 1001q0 -45 25.5 -73.5t66.5 -28.5q57 0 106 53l5 170h-11q-109 0 -150.5 -25.5t-41.5 -95.5z" />
<glyph unicode="&#xbc;" horiz-adv-x="851" d="M53 473v160h748v-160h-748zM68 1153q0 186 97 299t255 113q170 0 268 -117q90 -109 90 -289q0 -188 -98 -301q-96 -111 -260 -110q-160 0 -256 110.5t-96 294.5zM301 1159q0 -121 27 -186q12 -29 40.5 -47.5t57.5 -18.5q63 0 92 60.5t29 193.5q0 158 -39 203 q-33 37 -84 37q-70 0 -100 -76q-23 -57 -23 -166z" />
<glyph unicode="&#xbd;" horiz-adv-x="1415" d="M78 0v182h194q-186 180 -186 518q0 180 47 304t143 229q156 178 431 178q315 0 475 -237q74 -113 108.5 -224.5t34.5 -277.5q0 -313 -186 -490h196v-182h-528v170q127 51 191.5 155.5t64.5 321.5q0 227 -74 393q-37 74 -110.5 122t-176.5 48q-88 0 -163.5 -38.5 t-110.5 -106.5q-41 -76 -61.5 -146.5t-20.5 -183.5q0 -262 67.5 -388t192.5 -179v-168h-528z" />
<glyph unicode="&#xbe;" horiz-adv-x="1593" d="M66 289q0 360 503 360q8 0 26.5 -1t35.5 -1v43q0 90 -24.5 123t-98.5 33q-127 0 -303 -119l-117 197q63 43 170 86q145 61 287 61q145 0 266 -96q102 94 250 94q197 0 303 -111q139 -141 139 -458v-64h-606v-8q0 -121 57.5 -187.5t163.5 -66.5q139 0 266 105l107 -164 q-178 -145 -395 -146q-106 0 -172 22t-142 81l-37 37q-39 -55 -108 -93q-100 -55 -211 -55q-174 0 -267 85t-93 243zM358 299q0 -61 34 -99t87 -38q78 0 146 74l2 223h-13q-145 0 -200.5 -34t-55.5 -126zM901 637h318v12q0 106 -33 158q-39 61 -121 61q-78 0 -121 -59 t-43 -168v-4z" />
<glyph unicode="&#xbf;" horiz-adv-x="1138" d="M94 520q0 248 129 398.5t342 150.5q125 0 223 -49l121 197l127 -72l-133 -215q139 -137 139 -402q0 -256 -131 -405q-129 -145 -346 -146q-117 0 -211 48l-118 -197l-127 72l127 211q-141 152 -142 409zM399 526q0 -20 7 -137l266 438q-43 39 -103 39q-104 0 -141 -106 q-29 -86 -29 -234zM469 213q47 -37 104 -37q90 0 130 84t40 270q0 86 -6 123z" />
<glyph unicode="&#xc0;" horiz-adv-x="917" d="M66 317q0 66 17 119t51 91t57.5 57.5t62.5 44.5q154 98 158 266q0 27 -4 72h235l10 -54q23 -123 -21 -217t-159 -176q-6 -4 -29.5 -20.5t-32 -22.5t-26.5 -22.5t-25.5 -29.5t-14.5 -31.5t-7 -39.5q0 -72 47 -106.5t121 -34.5q25 0 46 3t41.5 11.5t35 13.5t33 17 t24.5 17.5t23 19.5l18 12l125 -176q-55 -57 -156.5 -106.5t-240.5 -49.5q-164 0 -276.5 93.5t-112.5 248.5zM328 1276q0 70 50 120t122 50q70 0 118 -49t48 -121t-50.5 -121t-120 -49t-118.5 50t-49 120z" />
<glyph unicode="&#xc1;" d="M106 1276q0 70 50.5 120t122.5 50q70 0 117.5 -49t47.5 -121t-50 -121t-119.5 -49t-119 50t-49.5 120zM115 -35l57 1002h209l61 -955z" />
<glyph unicode="&#xc2;" horiz-adv-x="1196" d="M115 406v223h903v-510h-252v287h-651z" />
<glyph unicode="&#xc3;" horiz-adv-x="1216" d="M2 856v193h340l178 -490q8 -25 20.5 -79t18.5 -70q4 14 16.5 61t18.5 68l338 940h278l-544 -1495h-224l-305 872h-135z" />
<glyph unicode="&#xc4;" horiz-adv-x="638" d="M-25 -264q102 80 133 128t39 156l56 836h-88v193h106q0 2 6 143q10 156 95.5 241t234.5 85q119 0 221 -66l-84 -170q-66 35 -104 35q-49 0 -81 -32t-36 -87l-10 -149h242l-66 -193h-184l-56 -786q-6 -88 -13 -146.5t-27.5 -109t-34 -78t-55.5 -64.5t-69.5 -56t-97.5 -67z " />
<glyph unicode="&#xc5;" horiz-adv-x="1249" d="M68 856v193h100q0 23 -5 70.5t-5 72.5q0 156 88 241t250 85q131 0 247 -66l-88 -170q-72 35 -112 35q-53 0 -84 -32t-31 -87v-149h346q0 23 -5 70.5t-5 72.5q0 156 88 241t250 85q141 0 227 -50l-88 -170q-41 18 -92 19q-53 0 -84 -32t-31 -87v-149h252l-69 -193h-175 v-856h-268v856h-344v-856h-268v856h-94z" />
<glyph unicode="&#xc6;" horiz-adv-x="1249" d="M0 0l500 1307h254l491 -1307h-1245zM344 236h528l-258 710z" />
<glyph unicode="&#xc7;" horiz-adv-x="1101" d="M92 510l326 479l186 -125l-237 -354l237 -354l-186 -125zM588 510l325 479l187 -125l-238 -354l238 -354l-187 -125z" />
<glyph unicode="&#xc8;" horiz-adv-x="1101" d="M88 156l238 354l-238 354l186 125l326 -479l-326 -479zM584 156l237 354l-237 354l186 125l326 -479l-326 -479z" />
<glyph unicode="&#xc9;" horiz-adv-x="1531" d="M74 150q0 74 52 126t126 52q76 0 129 -52.5t53 -125.5q0 -76 -53 -129.5t-127 -53.5q-76 0 -128 53.5t-52 129.5zM586 150q0 74 52 126t126 52q76 0 129 -52.5t53 -125.5q0 -76 -53 -129.5t-127 -53.5q-76 0 -128 53.5t-52 129.5zM1098 150q0 74 52 126t126 52 q76 0 129 -52.5t53 -125.5q0 -76 -53 -129.5t-127 -53.5q-76 0 -128 53.5t-52 129.5z" />
<glyph unicode="&#xca;" horiz-adv-x="681" />
<glyph unicode="&#xcb;" horiz-adv-x="1187" d="M-20 0l466 1427h310l448 -1427h-307l-100 338h-418l-100 -338h-299zM235 1674l119 213l424 -267l-84 -151zM449 575h278q-47 150 -78 287l-57 252q-41 -168 -68 -274q-40 -159 -75 -265z" />
<glyph unicode="&#xcc;" horiz-adv-x="1187" d="M-20 0l466 1427h310l448 -1427h-307l-100 338h-418l-100 -338h-299zM236 1682q94 119 254 119q61 0 135 -35t133 -35q84 0 139 61l84 -155q-92 -119 -254 -119q-63 0 -136 35t-132 35q-84 0 -139 -60zM449 575h278q-47 150 -78 287l-57 252q-41 -168 -68 -274 q-40 -159 -75 -265z" />
<glyph unicode="&#xcd;" horiz-adv-x="1368" d="M78 707q0 231 84 406t237 259q129 70 295 70q285 0 449 -193.5t164 -529.5q0 -242 -82 -417t-236 -259q-119 -66 -284 -66q-162 0 -271.5 47.5t-191.5 153.5q-164 211 -164 529zM299 1682q94 119 254 119q61 0 135 -35t133 -35q84 0 139 61l84 -155q-92 -119 -254 -119 q-63 0 -136 35t-132 35q-84 0 -139 -60zM397 707q0 -371 127 -461q68 -49 170 -49q150 0 216.5 120.5t66.5 393.5q0 211 -37 329q-20 68 -84 124.5t-166 56.5q-72 0 -131 -34t-90 -91q-72 -135 -72 -389z" />
<glyph unicode="&#xce;" horiz-adv-x="1751" d="M72 715q0 293 143 485q117 160 346 205q96 18 260 18h813l-37 -233h-485v-330h406v-233h-406v-381h549v-246h-836q-242 0 -351 25.5t-208 121.5q-195 188 -194 568zM414 741q0 -283 71 -399q72 -119 226 -119q31 0 63.5 5t48.5 10l19 6v915q-78 20 -154 21 q-141 0 -207.5 -106.5t-66.5 -332.5z" />
<glyph unicode="&#xcf;" horiz-adv-x="1638" d="M92 520q0 248 129 398.5t342 150.5q186 0 307 -108q117 109 299 108q197 0 304 -111q139 -141 139 -458v-64h-606v-8q0 -121 57 -187.5t164 -66.5q141 0 266 105l106 -164q-178 -145 -395 -146q-201 0 -330 117q-121 -109 -311 -109q-213 0 -342 147.5t-129 395.5z M397 526q0 -182 35 -264q18 -41 57 -63.5t82 -22.5q90 0 130 84t40 270q0 211 -55 281q-43 55 -119 55q-104 0 -141 -106q-29 -86 -29 -234zM1010 637h317q0 119 -33 170q-41 61 -120 61q-78 0 -121 -59t-43 -172z" />
<glyph unicode="&#xd0;" horiz-adv-x="985" d="M-6 457v211h997v-211h-997z" />
<glyph unicode="&#xd1;" horiz-adv-x="1970" d="M254 457v211h1460v-211h-1460z" />
<glyph unicode="&#xd2;" horiz-adv-x="1001" d="M80 1100q0 133 80 235t209 135l108 -114q-68 -16 -107.5 -47t-39.5 -70q0 -33 53 -65q80 -47 80 -144q0 -74 -52.5 -125t-127.5 -51q-88 0 -145.5 69.5t-57.5 176.5zM543 1100q0 133 79.5 235t206.5 135l109 -114q-66 -16 -105.5 -47t-39.5 -70q0 -33 53 -65 q80 -49 80 -144q0 -74 -52.5 -125t-128.5 -51q-88 0 -145 68.5t-57 177.5z" />
<glyph unicode="&#xd3;" horiz-adv-x="1001" d="M72 954q68 16 107.5 48t39.5 69q0 33 -53 66q-80 47 -80 143q0 74 51 125t127 51q90 0 147.5 -69.5t57.5 -176.5q0 -133 -80 -234t-209 -134zM535 954q66 16 105.5 48t39.5 69q0 35 -51 66q-80 47 -80 143q0 74 51 125t127 51q88 0 145.5 -68.5t57.5 -177.5 q0 -133 -79 -234t-208 -134z" />
<glyph unicode="&#xd4;" horiz-adv-x="557" d="M80 1098q0 133 80 235t209 135l108 -114q-68 -16 -107.5 -47t-39.5 -70q0 -37 53 -66q80 -45 80 -143q0 -74 -52.5 -125t-125.5 -51q-88 0 -146.5 69.5t-58.5 176.5z" />
<glyph unicode="&#xd5;" horiz-adv-x="546" d="M66 954q68 16 107.5 48t39.5 69q0 33 -53 66q-80 47 -80 143q0 74 51 125t127 51q90 0 147.5 -69.5t57.5 -176.5q0 -133 -80 -234t-209 -134z" />
<glyph unicode="&#xd6;" horiz-adv-x="1802" d="M70 856v193h100q0 23 -5 70.5t-5 72.5q0 156 88 241t250 85q131 0 247 -66l-88 -170q-72 35 -112 35q-53 0 -84 -32t-31 -87v-149h358q0 23 -5 72.5t-5 70.5q0 156 88 241t250 85q141 0 227 -50l-88 -170q-39 18 -92 18.5t-83.5 -31.5t-30.5 -87v-149h626v-1049h-274v856 h-350v-856h-269v856h-350v-856h-268v856h-94zM1370 1337.5q0 69.5 50 119.5t122 50q70 0 118 -49t48 -120.5t-49 -121t-121 -49.5q-70 0 -119 50.5t-49 120z" />
<glyph unicode="&#xd7;" horiz-adv-x="1802" d="M66 856v193h100q0 23 -5 70.5t-5 72.5q0 156 88 241t250 85q131 0 247 -66l-88 -170q-72 35 -112 35q-53 0 -84 -32t-31 -87v-149h346q0 23 -5 70.5t-5 72.5q0 156 88 241t250 85q141 0 227 -50l-88 -170q-39 18 -92 18.5t-84 -31.5t-31 -87v-149h252l-70 -193h-174v-856 h-268v856h-344v-856h-268v856h-94zM1370 1452l281 64q14 -80 14 -273v-817q0 -201 18 -233q16 -29 56 -29q16 0 30 4l48 -164q-74 -29 -164 -29q-88 0 -153.5 39t-90.5 105q-25 63 -25 235v783q0 184 -14 315z" />
<glyph unicode="&#xd8;" horiz-adv-x="1017" d="M-12 1032l280 33l183 -612l55 -217q20 117 33 167q18 76 41 146l157 500h289l-381 -1065q-53 -150 -98 -226.5t-103 -119.5q-104 -76 -254 -97l-94 180q117 33 170 70q43 31 78 86q29 47 59 123h-69l-98 295zM180 1300.5q0 63.5 47 110.5t113 47q63 0 108.5 -46 t45.5 -112q0 -63 -46 -110t-112 -47q-63 0 -109.5 47t-46.5 110.5zM612 1300.5q0 65.5 47.5 111.5t112.5 46q63 0 108.5 -46t45.5 -112q0 -63 -47 -110t-110.5 -47t-110 46t-46.5 111.5z" />
<glyph unicode="&#xd9;" horiz-adv-x="1138" d="M-29 1423h344l183 -389q45 -94 71 -182q39 96 76 178l184 393h338l-454 -837v-586h-299v586zM207 1628.5q0 63.5 47 110.5t113 47q63 0 108 -46t45 -112q0 -63 -47 -110.5t-110.5 -47.5t-109.5 47.5t-46 111zM639 1628.5q0 65.5 47 111.5t113 46q63 0 108 -46t45 -112 q0 -63 -46 -110.5t-111 -47.5q-63 0 -109.5 46.5t-46.5 112z" />
<glyph unicode="&#xda;" horiz-adv-x="686" d="M-238 -315l1082 1880h221l-1081 -1880h-222z" />
<glyph unicode="&#xdb;" horiz-adv-x="915" d="M63 905l242 142q61 -102 82 -144q33 4 62 4q51 0 77 -6q4 8 12.5 26.5t14.5 28.5l49 91l234 -142l-91 -139q55 -78 56 -211q-1 -117 -60 -205l97 -145l-242 -142q-61 102 -82 144q-18 -4 -61 -4q-41 0 -78 6q-4 -8 -12.5 -26.5t-14.5 -28.5l-49 -91l-233 142l90 139 q-53 76 -54 207q0 123 58 209zM326 557q0 -119 22 -154q33 -51 103 -51q66 0 94 49.5t28 157.5q0 123 -41 164q-33 33 -86 33q-76 0 -102 -62q-18 -45 -18 -137z" />
<glyph unicode="&#xdc;" horiz-adv-x="651" d="M78 510l325 479l187 -125l-238 -354l238 -354l-187 -125z" />
<glyph unicode="&#xdd;" horiz-adv-x="651" d="M76 156l237 354l-237 354l186 125l326 -479l-326 -479z" />
<glyph unicode="&#xde;" horiz-adv-x="1183" d="M68 856v193h100q0 23 -5 70.5t-5 72.5q0 156 88 241t250 85q141 0 227 -50l-88 -170q-41 18 -92 19q-53 0 -84 -32t-31 -87v-149h627v-1049h-275v856h-350v-856h-268v856h-94zM750 1337.5q0 69.5 50 119.5t122 50q70 0 117.5 -49t47.5 -120.5t-50 -121t-119.5 -49.5 t-118.5 50.5t-49 120z" />
<glyph unicode="&#xdf;" horiz-adv-x="1224" d="M66 856v193h94q0 23 -5 70.5t-5 72.5q0 156 88 241t249 85q141 0 228 -50l-88 -170q-41 18 -92 19q-53 0 -84 -32t-31 -87v-149h252l-70 -193h-174v-856h-268v856h-94zM758 1452l280 64q14 -80 15 -273v-817q0 -201 18 -233q16 -29 55 -29q20 0 31 4l47 -164 q-74 -29 -164 -29q-88 0 -153.5 39t-89.5 105q-25 63 -25 235v783q0 184 -14 315z" />
<glyph unicode="&#xe0;" horiz-adv-x="1024" d="M27 307l47 248h284v313h-307v248h307v307h271v-307h332l-48 -248h-284v-313h307v-248h-307v-307h-271v307h-331z" />
<glyph unicode="&#xe1;" horiz-adv-x="622" d="M117 561q0 76 54 130t130 54t128 -54t52 -132q0 -74 -54 -127t-130 -53t-128 53t-52 129z" />
<glyph unicode="&#xe2;" horiz-adv-x="546" d="M78 -182q68 14 107.5 47t39.5 69q0 33 -53 66q-80 47 -80 143q0 74 52.5 125t125.5 51q90 0 147.5 -69.5t57.5 -175.5q0 -133 -80 -235.5t-209 -135.5z" />
<glyph unicode="&#xe3;" horiz-adv-x="1007" d="M74 -182q68 14 107.5 47t39.5 69q0 33 -53 66q-80 47 -80 143q0 74 52.5 125t125.5 51q90 0 147.5 -69.5t57.5 -175.5q0 -133 -80 -235.5t-209 -135.5zM537 -182q66 14 105.5 47t39.5 69q0 35 -51 66q-80 47 -80 143q0 74 51 125t127 51q90 0 147.5 -69.5t57.5 -175.5 q0 -133 -80 -235.5t-209 -135.5z" />
<glyph unicode="&#xe4;" horiz-adv-x="2461" d="M49 1087q0 160 95 258.5t251 98.5q160 0 256.5 -96.5t96.5 -255.5q0 -168 -97 -263q-98 -94 -255.5 -94t-252 95.5t-94.5 256.5zM272 1094q0 -119 23 -154q33 -51 102 -51q66 0 94.5 49t28.5 158q0 123 -41 164q-33 32 -86 32q-76 0 -102 -61q-18 -45 -19 -137zM379 0 l745 1423h195l-746 -1423h-194zM948 332q0 160 95 258t251 98q158 0 260 -98q92 -94 93 -254q0 -168 -97 -262q-98 -94 -255.5 -94t-252 95t-94.5 257zM1171 338q0 -119 23 -154q33 -51 102 -51q66 0 94.5 49t28.5 158q0 123 -41 164q-33 33 -86 33q-76 0 -102 -62 q-18 -45 -19 -137zM1706 332q0 160 95 258t251 98q162 0 262 -100q90 -90 90 -252q0 -168 -96 -262q-98 -94 -256 -94t-252 95t-94 257zM1929 338q0 -119 23 -154q33 -51 102 -51q66 0 94.5 49t28.5 158q0 123 -41 164q-33 33 -86 33q-76 0 -102 -62q-18 -45 -19 -137z" />
<glyph unicode="&#xe5;" horiz-adv-x="1187" d="M-20 0l466 1427h310l448 -1427h-307l-100 338h-418l-100 -338h-299zM213 1608l369 276l376 -276l-92 -150l-284 156l-277 -156zM449 575h278q-47 150 -78 287l-57 252q-41 -168 -68 -274q-40 -159 -75 -265z" />
<glyph unicode="&#xe6;" horiz-adv-x="1097" d="M172 0v1423h811l-37 -233h-487v-330h407v-233h-403v-381h538v-246h-829zM195 1608l369 276l376 -276l-92 -150l-284 156l-277 -156z" />
<glyph unicode="&#xe7;" horiz-adv-x="1187" d="M-10 0l467 1427h309l448 -1427h-307l-100 338h-418l-100 -338h-299zM393 1620l424 266l119 -213l-459 -205zM459 575h278q-47 150 -78 287l-57 252q-41 -168 -67 -274q-41 -159 -76 -265z" />
<glyph unicode="&#xe8;" horiz-adv-x="1097" d="M172 0v1423h811l-37 -233h-487v-330h407v-233h-403v-381h538v-246h-829zM204 1628.5q0 63.5 47 110.5t113 47q63 0 108.5 -46t45.5 -112q0 -63 -46 -110t-112 -47q-63 0 -109.5 47t-46.5 110.5zM636 1628.5q0 65.5 47.5 111.5t112.5 46q63 0 108.5 -46t45.5 -112 q0 -63 -47 -110t-110.5 -47t-110 46t-46.5 111.5z" />
<glyph unicode="&#xe9;" horiz-adv-x="1097" d="M172 0v1423h811l-37 -233h-487v-330h407v-233h-403v-381h538v-246h-829zM256 1674l119 213l424 -267l-84 -151z" />
<glyph unicode="&#xea;" horiz-adv-x="643" d="M98 1620l424 267l119 -213l-459 -205zM172 0v1423h299v-1423h-299z" />
<glyph unicode="&#xeb;" horiz-adv-x="643" d="M-43 1608l369 276l376 -276l-92 -150l-284 156l-277 -156zM172 0v1423h299v-1423h-299z" />
<glyph unicode="&#xec;" horiz-adv-x="643" d="M-45 1628.5q0 63.5 47 110.5t113 47q63 0 108.5 -46t45.5 -112q0 -63 -46 -110t-112 -47q-63 0 -109.5 47t-46.5 110.5zM172 0v1423h299v-1423h-299zM387 1628.5q0 65.5 47.5 111.5t112.5 46q63 0 108.5 -46t45.5 -112q0 -63 -47 -110t-110.5 -47t-110 46t-46.5 111.5z " />
<glyph unicode="&#xed;" horiz-adv-x="643" d="M28 1674l119 213l424 -267l-84 -151zM172 0v1423h299v-1423h-299z" />
<glyph unicode="&#xee;" horiz-adv-x="1368" d="M78 707q0 231 84 406t237 259q129 70 295 70q285 0 449 -193.5t164 -529.5q0 -242 -82 -417t-236 -259q-119 -66 -284 -66q-162 0 -271.5 47.5t-191.5 153.5q-164 211 -164 529zM397 707q0 -371 127 -461q68 -49 170 -49q150 0 216.5 120.5t66.5 393.5q0 211 -37 329 q-20 68 -84 124.5t-166 56.5q-72 0 -131 -34t-90 -91q-72 -135 -72 -389zM479 1620l424 267l119 -213l-459 -205z" />
<glyph unicode="&#xef;" horiz-adv-x="1368" d="M78 707q0 231 84 406t237 259q129 70 295 70q285 0 449 -193.5t164 -529.5q0 -242 -82 -417t-236 -259q-119 -66 -284 -66q-162 0 -271.5 47.5t-191.5 153.5q-164 211 -164 529zM295 1608l369 276l376 -276l-92 -150l-284 156l-277 -156zM397 707q0 -371 127 -461 q68 -49 170 -49q150 0 216.5 120.5t66.5 393.5q0 211 -37 329q-20 68 -84 124.5t-166 56.5q-72 0 -131 -34t-90 -91q-72 -135 -72 -389z" />
<glyph unicode="&#xf0;" horiz-adv-x="2048" d="M102 1587l1035 72l409 -246l21 -205l225 31l102 -1577l-1310 -72l-11 195l-307 -31zM225 1485l154 -1598l1188 62l-113 1392l-297 -122l-61 327zM530 1010l150 12l215 -432l135 463l148 12l51 -590l-94 -8l-43 496h-5l-149 -512l-64 -7l-239 480h-2l43 -496l-94 -8z M1188 1526l20 -164l154 51z" />
<glyph unicode="&#xf1;" horiz-adv-x="1368" d="M78 707q0 231 84 406t237 259q129 70 295 70q285 0 449 -193.5t164 -529.5q0 -242 -82 -417t-236 -259q-119 -66 -284 -66q-162 0 -271.5 47.5t-191.5 153.5q-164 211 -164 529zM368 1674l119 213l424 -267l-84 -151zM397 707q0 -371 127 -461q68 -49 170 -49 q150 0 216.5 120.5t66.5 393.5q0 211 -37 329q-20 68 -84 124.5t-166 56.5q-72 0 -131 -34t-90 -91q-72 -135 -72 -389z" />
<glyph unicode="&#xf2;" horiz-adv-x="1351" d="M164 432v991h293v-936q0 -123 24 -170q51 -98 195 -98q94 0 150.5 44t66.5 122q4 31 4 127v911h291v-958q0 -156 -23 -223q-35 -104 -154.5 -186.5t-328.5 -82.5q-336 0 -457 191q-35 55 -48 110.5t-13 157.5zM367 1620l424 267l119 -213l-459 -205z" />
<glyph unicode="&#xf3;" horiz-adv-x="1351" d="M164 432v991h293v-936q0 -123 24 -170q51 -98 195 -98q94 0 150.5 44t66.5 122q4 31 4 127v911h291v-958q0 -156 -23 -223q-35 -104 -154.5 -186.5t-328.5 -82.5q-336 0 -457 191q-35 55 -48 110.5t-13 157.5zM254 1608l369 276l376 -276l-92 -150l-284 156l-277 -156z " />
<glyph unicode="&#xf4;" horiz-adv-x="1351" d="M164 432v991h293v-936q0 -123 24 -170q51 -98 195 -98q94 0 150.5 44t66.5 122q4 31 4 127v911h291v-958q0 -156 -23 -223q-35 -104 -154.5 -186.5t-328.5 -82.5q-336 0 -457 191q-35 55 -48 110.5t-13 157.5zM307 1674l119 213l424 -267l-84 -151z" />
<glyph unicode="&#xf5;" d="M143 0v1030l275 43v-1073h-275z" />
<glyph unicode="&#xf6;" horiz-adv-x="823" d="M39 1280l369 276l376 -276l-92 -150l-284 156l-277 -156z" />
<glyph unicode="&#xf7;" horiz-adv-x="804" d="M29 1354q94 119 254 119q61 0 135 -35t133 -35q84 0 139 61l84 -155q-92 -119 -254 -119q-63 0 -136 35t-132 35q-84 0 -139 -60z" />
<glyph unicode="&#xf8;" horiz-adv-x="808" d="M82 1364v160h643v-160h-643z" />
<glyph unicode="&#xf9;" horiz-adv-x="823" d="M35 1411l92 150l285 -156l276 156l92 -150l-368 -276z" />
<glyph unicode="&#xfa;" horiz-adv-x="512" d="M86 1337.5q0 69.5 50 119.5t122 50q70 0 118 -49t48 -120.5t-50 -121t-120 -49.5t-119 50.5t-49 120z" />
<glyph unicode="&#xfb;" horiz-adv-x="645" d="M104 1350q0 88 64.5 152.5t153 64.5t151 -63.5t62.5 -153.5q0 -88 -64.5 -152.5t-153 -64.5t-151 63.5t-62.5 153.5zM215 1350q0 -43 30.5 -74t71.5 -31q43 0 74 31t31 74t-30 73.5t-70 30.5q-45 0 -76 -30.5t-31 -73.5z" />
<glyph unicode="&#xfc;" horiz-adv-x="878" d="M279 -358l61 129q70 -31 106 -31q20 0 36 12t16 25q0 41 -52 41q-10 0 -19 -2t-19.5 -5.5l-16.5 -5.5l-26 41l49 179l147 -13l-29 -78q74 -8 111 -52t37 -109q0 -78 -59.5 -129.5t-163.5 -51.5q-88 0 -178 50z" />
<glyph unicode="&#xfd;" horiz-adv-x="1015" d="M80 1143l170 469l227 -94l-237 -445zM494 1174l239 436l209 -129l-301 -402z" />
<glyph unicode="&#xfe;" horiz-adv-x="878" d="M233 -227q0 68 33 133t62.5 97t54.5 50l145 -82q-35 -33 -52 -52t-37.5 -55t-20.5 -71q0 -23 14 -38t35 -15q37 0 106 31l62 -129q-90 -49 -178 -50q-104 0 -164 51.5t-60 129.5z" />
<glyph unicode="&#xff;" horiz-adv-x="823" d="M49 1419l74 90q141 -133 285 -133q113 0 276 133l64 -90q-43 -63 -145.5 -149t-203.5 -86q-72 0 -155.5 55t-125.5 100t-69 80z" />
<glyph unicode="&#x152;" horiz-adv-x="1056" d="M76 289q0 360 504 360q39 0 61 -2v43q0 90 -24.5 123t-98.5 33q-127 0 -303 -119l-117 197q72 45 170 86q145 61 287 61q131 0 219 -47t119 -135q20 -61 18 -189l-6 -352v-18q0 -86 19.5 -128t79.5 -87l-146 -168q-106 45 -147 127q-37 -37 -64 -56q-80 -57 -211 -57 q-174 0 -267 85t-93 243zM313 1350q0 88 64.5 152.5t153 64.5t151 -63.5t62.5 -153.5q0 -88 -64.5 -152.5t-153 -64.5t-151 63.5t-62.5 153.5zM369 299q0 -61 33.5 -99t86.5 -38q78 0 144 71l4 226h-12q-145 0 -200.5 -34t-55.5 -126zM424 1350q0 -43 30.5 -74t71.5 -31 q43 0 74 31t31 74t-30 73.5t-70 30.5q-45 0 -76 -30.5t-31 -73.5z" />
<glyph unicode="&#x153;" horiz-adv-x="1089" d="M121 352v672l270 51v-674q0 -127 23 -172q25 -49 96 -49q51 0 102.5 31t67.5 70v737l262 55v-801q0 -115 64 -190l-195 -111q-55 39 -82 103q-104 -100 -276 -101q-111 0 -197 47.5t-113 122.5q-23 66 -22 209zM295 1292l424 267l119 -213l-459 -205z" />
<glyph unicode="&#x178;" horiz-adv-x="1089" d="M121 352v672l270 51v-674q0 -127 23 -172q25 -49 96 -49q51 0 102.5 31t67.5 70v737l262 55v-801q0 -115 64 -190l-195 -111q-55 39 -82 103q-104 -100 -276 -101q-111 0 -197 47.5t-113 122.5q-23 66 -22 209zM180 1300.5q0 63.5 47 110.5t113 47q63 0 108.5 -46 t45.5 -112q0 -63 -46 -110t-112 -47q-63 0 -109.5 47t-46.5 110.5zM612 1300.5q0 65.5 47.5 111.5t112.5 46q63 0 108.5 -46t45.5 -112q0 -63 -47 -110t-110.5 -47t-110 46t-46.5 111.5z" />
<glyph unicode="&#x2c6;" horiz-adv-x="1056" d="M76 289q0 360 504 360q33 0 61 -2v43q0 90 -24.5 123t-98.5 33q-127 0 -303 -119l-117 197q74 45 170 86q145 61 287 61q131 0 219 -47t119 -135q20 -61 18 -189l-6 -352v-18q0 -86 19.5 -128t79.5 -87l-146 -168q-106 45 -147 127q-27 -29 -64 -56q-80 -57 -211 -57 q-174 0 -267 85t-93 243zM231 1346l119 213l424 -267l-84 -151zM369 299q0 -61 33.5 -99t86.5 -38q78 0 144 71l4 226h-12q-145 0 -200.5 -34t-55.5 -126z" />
<glyph unicode="&#x2dc;" horiz-adv-x="1079" d="M66 520q0 248 129 398.5t342 150.5q223 0 356 -158q121 -141 121 -383q0 -256 -131 -405q-129 -145 -346 -146q-213 0 -342 147.5t-129 395.5zM184 1346l119 213l424 -267l-84 -151zM371 526q0 -182 35 -264q18 -41 57 -63.5t82 -22.5q90 0 130 84t40 270q0 211 -56 281 q-42 55 -118 55q-104 0 -142 -106q-29 -86 -28 -234z" />
<glyph unicode="&#x2000;" horiz-adv-x="943" />
<glyph unicode="&#x2001;" horiz-adv-x="1887" />
<glyph unicode="&#x2002;" horiz-adv-x="943" />
<glyph unicode="&#x2003;" horiz-adv-x="1887" />
<glyph unicode="&#x2004;" horiz-adv-x="629" />
<glyph unicode="&#x2005;" horiz-adv-x="471" />
<glyph unicode="&#x2006;" horiz-adv-x="314" />
<glyph unicode="&#x2007;" horiz-adv-x="314" />
<glyph unicode="&#x2008;" horiz-adv-x="235" />
<glyph unicode="&#x2009;" horiz-adv-x="377" />
<glyph unicode="&#x200a;" horiz-adv-x="104" />
<glyph unicode="&#x2010;" horiz-adv-x="692" d="M102 442v238h492v-238h-492z" />
<glyph unicode="&#x2011;" horiz-adv-x="692" d="M102 442v238h492v-238h-492z" />
<glyph unicode="&#x2012;" horiz-adv-x="692" d="M102 442v238h492v-238h-492z" />
<glyph unicode="&#x2013;" horiz-adv-x="1110" d="M106 1006l244 69q39 -68 39 -131q78 53 121 78q86 45 188 45q88 0 158 -42t94 -110q20 -55 21 -149v-766h-271v682q0 90 -19 122t-73 32q-86 0 -190 -95v-741h-275v760q0 142 -37 246zM181 1354q94 119 254 119q61 0 135 -35t133 -35q84 0 139 61l84 -155 q-92 -119 -254 -119q-63 0 -136 35t-132 35q-84 0 -139 -60z" />
<glyph unicode="&#x2014;" horiz-adv-x="1079" d="M66 520q0 248 129 398.5t342 150.5q223 0 356 -158q121 -141 121 -383q0 -256 -131 -405q-129 -145 -346 -146q-213 0 -342 147.5t-129 395.5zM295 1292l424 267l119 -213l-459 -205zM371 526q0 -182 35 -264q18 -41 57 -63.5t82 -22.5q90 0 130 84t40 270q0 211 -56 281 q-42 55 -118 55q-104 0 -142 -106q-29 -86 -28 -234z" />
<glyph unicode="&#x2018;" horiz-adv-x="1044" d="M72 514q0 270 131 416q127 141 329 141q197 0 304 -110q139 -141 139 -459v-64h-606v-8q0 -121 57 -187.5t164 -66.5q139 1 266 105l107 -164q-178 -145 -396 -146q-225 0 -360 147.5t-135 395.5zM161 1300.5q0 63.5 47 110.5t113 47q63 0 108.5 -46t45.5 -112 q0 -63 -46 -110t-112 -47q-63 0 -109.5 47t-46.5 110.5zM373 639h317v12q0 106 -33 158q-39 61 -120 61q-78 0 -121 -59t-43 -168v-4zM593 1300.5q0 65.5 47.5 111.5t112.5 46q63 0 108.5 -46t45.5 -112q0 -63 -47 -110t-110.5 -47t-110 46t-46.5 111.5z" />
<glyph unicode="&#x2019;" d="M76 1292l424 267l119 -213l-459 -205zM143 0v1030l275 43v-1073h-275z" />
<glyph unicode="&#x201a;" horiz-adv-x="1122" d="M76 682q0 262 96 442q82 156 227.5 243t317.5 87q106 0 203.5 -30.5t156.5 -82.5l-129 -194q-109 80 -227 80q-72 0 -137.5 -33t-104.5 -90q-80 -119 -80 -367q0 -274 60 -381q88 -160 274 -159q131 0 244 92l131 -180q-162 -133 -395 -134h-35l-14 -41q74 -8 110.5 -52 t36.5 -109q0 -78 -59.5 -129.5t-163.5 -51.5q-88 0 -178 50l61 129q70 -31 107 -31q20 0 35.5 12t15.5 25q0 41 -51 41q-12 0 -30 -6.5t-26 -6.5l-26 41l41 150q-172 43 -289 176q-172 193 -172 510z" />
<glyph unicode="&#x201c;" d="M-41 1346l119 213l424 -267l-84 -151zM143 0v1030l275 43v-1073h-275z" />
<glyph unicode="&#x201d;" d="M-78 1280l369 276l376 -276l-92 -150l-284 156l-277 -156zM143 0v1030l275 43v-1073h-275z" />
<glyph unicode="&#x201e;" horiz-adv-x="1333" d="M172 0v1423h317l273 -569q104 -221 156 -403q-18 201 -23 391l-6 581h272v-1423h-299l-244 545q-158 352 -192 467q8 -104 14 -404l9 -608h-277zM301 1682q94 119 254 119q61 0 135 -35t133 -35q84 0 139 61l84 -155q-92 -119 -254 -119q-63 0 -136 35t-132 35 q-84 0 -139 -60z" />
<glyph unicode="&#x2022;" d="M-70 1300.5q0 63.5 47 110.5t113 47q63 0 108.5 -46t45.5 -112q0 -63 -46 -110t-112 -47q-63 0 -109.5 47t-46.5 110.5zM143 0v1030l275 43v-1073h-275zM362 1300.5q0 65.5 47.5 111.5t112.5 46q63 0 108.5 -46t45.5 -112q0 -63 -47 -110t-110.5 -47t-110 46t-46.5 111.5 z" />
<glyph unicode="&#x2026;" horiz-adv-x="1368" d="M78 707q0 231 84 406t237 259q129 70 295 70q285 0 449 -193.5t164 -529.5q0 -242 -82 -417t-236 -259q-119 -66 -284 -66q-162 0 -271.5 47.5t-191.5 153.5q-164 211 -164 529zM327 1628.5q0 63.5 47 110.5t113 47q63 0 108.5 -46t45.5 -112q0 -63 -46 -110t-112 -47 q-63 0 -109.5 47t-46.5 110.5zM397 707q0 -371 127 -461q68 -49 170 -49q150 0 216.5 120.5t66.5 393.5q0 211 -37 329q-20 68 -84 124.5t-166 56.5q-72 0 -131 -34t-90 -91q-72 -135 -72 -389zM759 1628.5q0 65.5 47.5 111.5t112.5 46q63 0 108.5 -46t45.5 -112 q0 -63 -47 -110t-110.5 -47t-110 46t-46.5 111.5z" />
<glyph unicode="&#x202f;" horiz-adv-x="377" />
<glyph unicode="&#x2039;" horiz-adv-x="1056" d="M76 289q0 360 504 360q39 0 61 -2v43q0 90 -24.5 123t-98.5 33q-127 0 -303 -119l-117 197q72 45 170 86q145 61 287 61q131 0 219 -47t119 -135q20 -61 18 -189l-6 -352v-18q0 -86 19.5 -128t79.5 -87l-146 -168q-106 45 -147 127q-37 -37 -64 -56q-80 -57 -211 -57 q-174 0 -267 85t-93 243zM152 1354q94 119 254 119q61 0 135 -35t133 -35q84 0 139 61l84 -155q-92 -119 -254 -119q-63 0 -136 35t-132 35q-84 0 -139 -60zM369 299q0 -61 33.5 -99t86.5 -38q78 0 144 71l4 226h-12q-145 0 -200.5 -34t-55.5 -126z" />
<glyph unicode="&#x203a;" horiz-adv-x="1079" d="M66 520q0 248 129 398.5t342 150.5q223 0 356 -158q121 -141 121 -383q0 -256 -131 -405q-129 -145 -346 -146q-213 0 -342 147.5t-129 395.5zM164 1354q94 119 254 119q61 0 135 -35t133 -35q84 0 139 61l84 -155q-92 -119 -254 -119q-63 0 -136 35t-132 35 q-84 0 -139 -60zM371 526q0 -182 35 -264q18 -41 57 -63.5t82 -22.5q90 0 130 84t40 270q0 211 -56 281q-42 55 -118 55q-104 0 -142 -106q-29 -86 -28 -234z" />
<glyph unicode="&#x205f;" horiz-adv-x="471" />
<glyph unicode="&#x20ac;" horiz-adv-x="1187" d="M-20 0l466 1427h310l448 -1427h-307l-100 338h-418l-100 -338h-299zM229 1628.5q0 63.5 47 110.5t113 47q63 0 108.5 -46t45.5 -112q0 -63 -46 -110t-112 -47q-63 0 -109.5 47t-46.5 110.5zM449 575h278q-47 150 -78 287l-57 252q-41 -168 -68 -274q-40 -159 -75 -265z M661 1628.5q0 65.5 47.5 111.5t112.5 46q63 0 108.5 -46t45.5 -112q0 -63 -47 -110t-110.5 -47t-110 46t-46.5 111.5z" />
<glyph unicode="&#x2122;" horiz-adv-x="1079" d="M66 520q0 248 129 398.5t342 150.5q223 0 356 -158q121 -141 121 -383q0 -256 -131 -405q-129 -145 -346 -146q-213 0 -342 147.5t-129 395.5zM168 1280l369 276l376 -276l-92 -150l-284 156l-277 -156zM371 526q0 -182 35 -264q18 -41 57 -63.5t82 -22.5q90 0 130 84 t40 270q0 211 -56 281q-42 55 -118 55q-104 0 -142 -106q-29 -86 -28 -234z" />
<glyph unicode="&#xe000;" horiz-adv-x="1075" d="M0 0v1075h1075v-1075h-1075z" />
</font>
</defs>
</svg>
